<svg aria-hidden="true" style="position: absolute; width: 0; height: 0; overflow: hidden;" version="1.1" xmlns="http://www.w3.org/2000/svg" xmlns:xlink="http://www.w3.org/1999/xlink">
<defs>
<symbol id="icon-logo" viewBox="0 0 32 32"><path d="M13.872 14.42c0.027 0.001 0.053 0.002 0.081 0.003 1.046 0.041 1.046 0.041 1.448 0.293 0.26 0.12 0.585 0.112 0.866 0.137 0.821 0.073 0.821 0.073 1.083 0.297 0.006 0.017 0.012 0.034 0.019 0.052 0.030 0.059 0.030 0.059 0.12 0.078 0.038 0.008 0.076 0.015 0.114 0.023 0.020 0.004 0.040 0.008 0.061 0.012 0.099 0.020 0.197 0.038 0.296 0.055 0.244 0.041 0.466 0.079 0.625 0.284 0.107 0.132 0.23 0.141 0.39 0.172 0.079 0.019 0.157 0.040 0.235 0.061 0.019 0.005 0.038 0.010 0.058 0.015 0.165 0.044 0.279 0.101 0.371 0.25 0.103 0.144 0.256 0.159 0.421 0.194 0.464 0.103 0.464 0.103 0.602 0.244 0.036 0.058 0.050 0.098 0.064 0.163 0.027 0.006 0.053 0.012 0.081 0.018 0.18 0.041 0.359 0.084 0.537 0.132 0.027 0.007 0.054 0.014 0.081 0.022 0.128 0.047 0.214 0.109 0.296 0.217 0.090 0.109 0.191 0.134 0.325 0.168 0.043 0.012 0.085 0.023 0.128 0.035 0.032 0.008 0.032 0.008 0.064 0.017 0.067 0.018 0.134 0.037 0.201 0.056 0.020 0.006 0.040 0.012 0.061 0.018 0.095 0.032 0.172 0.080 0.235 0.158 0.166 0.2 0.444 0.246 0.686 0.309 0.213 0.058 0.369 0.151 0.519 0.316 0.121 0.109 0.321 0.137 0.476 0.169 0.198 0.044 0.387 0.115 0.512 0.281 0.119 0.153 0.319 0.178 0.5 0.219 0.222 0.052 0.446 0.113 0.576 0.315 0 0.017 0 0.033 0 0.050 0.126 0.046 0.25 0.081 0.38 0.11 0.264 0.058 0.483 0.115 0.648 0.344 0.117 0.117 0.286 0.139 0.442 0.169 0.425 0.090 0.425 0.090 0.558 0.281 0.014 0.025 0.014 0.025 0.028 0.050 0.123 0.131 0.356 0.149 0.526 0.181 0.172 0.035 0.342 0.089 0.455 0.231 0.012 0.015 0.024 0.029 0.037 0.045 0.026 0.040 0.026 0.040 0.026 0.090 0.025 0.006 0.050 0.012 0.076 0.018 0.725 0.177 0.725 0.177 0.899 0.407 0.081 0.101 0.157 0.141 0.275 0.188s0.199 0.082 0.275 0.188c0.013 0.037 0.026 0.074 0.039 0.111 0.056 0.14 0.16 0.171 0.291 0.23 0.093 0.046 0.127 0.091 0.169 0.185 0.020 0.058 0.038 0.116 0.056 0.174 0.032 0.086 0.085 0.129 0.161 0.177 0.155 0.101 0.219 0.227 0.262 0.406 0.008 0.037 0.015 0.074 0.023 0.111 0.008 0.039 0.017 0.079 0.025 0.118 0.004 0.019 0.008 0.038 0.012 0.058 0.026 0.119 0.056 0.237 0.087 0.355 0.082 0.008 0.165 0.017 0.25 0.025 0 1.386 0 2.772 0 4.2-0.082 0.008-0.165 0.017-0.25 0.025-0.014 0.035-0.028 0.069-0.042 0.105-0.056 0.122-0.108 0.213-0.237 0.268-0.247 0.082-0.509 0.080-0.766 0.083-0.056 0.001-0.112 0.002-0.168 0.003-0.087 0.001-0.174 0.003-0.26 0.003-0.085 0.001-0.169 0.003-0.254 0.004-0.038 0-0.038 0-0.077 0-0.178 0.003-0.347 0.026-0.521 0.059 0 0.017 0 0.033 0 0.050-0.112 0.1-0.112 0.1-0.175 0.1-0.011 0.053-0.021 0.106-0.032 0.159-0.009 0.046-0.018 0.091-0.028 0.137-0.021 0.104-0.041 0.208-0.059 0.313-0.033 0.195-0.074 0.366-0.207 0.517-0.045 0.028-0.045 0.028-0.090 0.048-0.128 0.078-0.141 0.189-0.184 0.327-0.061 0.159-0.142 0.246-0.275 0.35-0.081 0.073-0.141 0.147-0.2 0.239-0.075 0.116-0.152 0.183-0.272 0.253-0.073 0.054-0.109 0.096-0.161 0.169-0.123 0.164-0.267 0.224-0.459 0.283-0.108 0.037-0.154 0.071-0.212 0.169-0.014 0.028-0.014 0.028-0.028 0.057-0.128 0.166-0.36 0.186-0.553 0.221-0.054 0.010-0.108 0.020-0.163 0.031-0.026 0.005-0.051 0.009-0.078 0.015-0.1 0.019-0.2 0.041-0.299 0.064 0 0.082 0 0.165 0 0.25-0.792 0-1.584 0-2.4 0-0.008-0.082-0.016-0.165-0.025-0.25-0.166-0.050-0.33-0.085-0.502-0.111-0.287-0.046-0.468-0.101-0.648-0.339-0.081-0.104-0.165-0.122-0.288-0.156-0.139-0.044-0.232-0.125-0.312-0.244-0.018-0.058-0.018-0.058-0.025-0.1-0.016 0-0.033 0-0.050 0 0-0.017 0-0.033 0-0.050-0.025-0.005-0.050-0.010-0.076-0.016-0.142-0.042-0.238-0.122-0.311-0.251-0.012-0.024-0.024-0.048-0.036-0.073-0.059-0.117-0.11-0.174-0.229-0.231-0.135-0.084-0.172-0.212-0.217-0.355-0.055-0.166-0.055-0.166-0.184-0.278-0.017-0.008-0.034-0.016-0.051-0.024-0.095-0.047-0.131-0.131-0.166-0.227-0.044-0.147-0.069-0.296-0.093-0.447-0.044-0.314-0.044-0.314-0.206-0.578-0.27-0.391-0.212-1.122-0.139-1.564 0.038-0.199 0.106-0.355 0.215-0.526 0.085-0.164 0.11-0.35 0.142-0.53 0.096-0.527 0.096-0.527 0.308-0.692 0.014-0.011 0.028-0.022 0.042-0.033 0.019-0.015 0.019-0.015 0.038-0.030 0.066-0.080 0.092-0.183 0.126-0.279 0.048-0.129 0.109-0.229 0.238-0.291 0.024-0.009 0.024-0.009 0.049-0.017 0.067-0.031 0.093-0.047 0.127-0.113 0.015-0.044 0.029-0.087 0.044-0.131 0.047-0.109 0.128-0.175 0.227-0.238 0.035-0.013 0.070-0.025 0.107-0.036 0.061-0.019 0.087-0.028 0.122-0.082 0.015-0.035 0.031-0.070 0.046-0.105 0.059-0.118 0.152-0.184 0.274-0.229 0.053-0.016 0.105-0.032 0.158-0.049 0.090-0.032 0.134-0.076 0.193-0.149 0.208-0.248 0.483-0.288 0.791-0.339 0.287-0.048 0.522-0.11 0.777-0.251 0.427-0.182 1.056-0.16 1.487-0.001 0.081 0.034 0.152 0.070 0.227 0.116 0.105 0.061 0.212 0.080 0.331 0.101 0.022 0.004 0.044 0.008 0.067 0.012 0.084 0.016 0.168 0.031 0.253 0.046 0.452 0.081 0.452 0.081 0.627 0.29 0.115 0.136 0.224 0.177 0.392 0.225 0.135 0.053 0.219 0.131 0.3 0.25 0.008 0.021 0.015 0.043 0.022 0.065 0.023 0.064 0.023 0.064 0.081 0.087 0.021 0.006 0.042 0.012 0.064 0.018 0.143 0.052 0.227 0.127 0.308 0.255 0.012 0.035 0.023 0.069 0.033 0.105 0.022 0.070 0.035 0.090 0.099 0.13 0.045 0.020 0.090 0.041 0.134 0.060 0.089 0.044 0.117 0.090 0.159 0.18 0.017 0.050 0.033 0.101 0.049 0.151 0.051 0.161 0.12 0.23 0.253 0.331 0.143 0.131 0.188 0.295 0.219 0.481 0.003 0.020 0.007 0.039 0.011 0.059 0.011 0.062 0.022 0.123 0.033 0.185 0.014 0.082 0.029 0.163 0.044 0.245 0.003 0.019 0.006 0.037 0.009 0.056 0.013 0.072 0.024 0.13 0.068 0.189 0.061 0.042 0.125 0.053 0.197 0.069 0.028 0.006 0.055 0.012 0.084 0.019 0.111 0.018 0.195 0.030 0.299-0.015 0.065-0.041 0.065-0.041 0.074-0.113-0-0.027-0-0.054-0-0.081 0-0.046 0-0.046 0-0.093-0-0.034-0.001-0.067-0.002-0.101s0-0.070 0-0.104c-0-0.073-0.001-0.147-0.002-0.221-0.001-0.092-0.002-0.184-0.002-0.276 0.066-0.986 0.066-0.986-0.23-1.853-0.051-0.044-0.103-0.087-0.155-0.13-0.042-0.041-0.084-0.083-0.125-0.125-0.115-0.117-0.232-0.23-0.356-0.337-0.044-0.038-0.044-0.038-0.097-0.095-0.108-0.101-0.236-0.131-0.377-0.161-0.21-0.050-0.372-0.153-0.52-0.311-0.13-0.122-0.331-0.149-0.5-0.181-0.204-0.041-0.396-0.11-0.525-0.281-0.119-0.154-0.321-0.178-0.502-0.22-0.239-0.056-0.41-0.117-0.555-0.323-0.117-0.112-0.285-0.134-0.438-0.163-0.424-0.090-0.424-0.090-0.559-0.281-0.010-0.017-0.019-0.033-0.029-0.050-0.103-0.116-0.265-0.135-0.412-0.157-0.282-0.050-0.436-0.108-0.625-0.332-0.084-0.088-0.163-0.108-0.28-0.132-0.066-0.015-0.132-0.031-0.198-0.047-0.017-0.004-0.035-0.008-0.052-0.013-0.2-0.050-0.38-0.112-0.499-0.29-0.075-0.090-0.129-0.115-0.244-0.136-0.612-0.128-0.612-0.128-0.756-0.314-0.010-0.021-0.020-0.042-0.030-0.064-0.062-0.084-0.131-0.094-0.229-0.113-0.036-0.008-0.072-0.016-0.108-0.024-0.027-0.006-0.027-0.006-0.055-0.012-0.436-0.099-0.436-0.099-0.578-0.237-0.012-0.029-0.024-0.057-0.037-0.087-0.035-0.064-0.055-0.085-0.123-0.115-0.076-0.021-0.153-0.038-0.23-0.053-0.338-0.072-0.563-0.126-0.759-0.42-0.066-0.025-0.066-0.025-0.145-0.041-0.044-0.011-0.044-0.011-0.089-0.021-0.061-0.014-0.123-0.029-0.184-0.043-0.427-0.104-0.427-0.104-0.546-0.274-0.036-0.070-0.036-0.070-0.036-0.12-0.015-0.003-0.029-0.006-0.045-0.009-0.163-0.032-0.323-0.069-0.483-0.112-0.023-0.006-0.047-0.012-0.071-0.018-0.211-0.056-0.413-0.156-0.558-0.324-0.149-0.132-0.415-0.148-0.607-0.175-0.26-0.038-0.547-0.080-0.73-0.288-0.262-0.234-0.832-0.184-1.158-0.203-0.066-0.004-0.132-0.008-0.198-0.012-0.162-0.010-0.325-0.020-0.487-0.029-0.104-0.006-0.207-0.013-0.31-0.019-0.085-0.006-0.171-0.011-0.256-0.015-0.037-0.002-0.075-0.005-0.111-0.007-0.638-0.040-1.282 0.020-1.919 0.062-0.104 0.007-0.209 0.014-0.314 0.020-0.082 0.005-0.165 0.011-0.247 0.016-0.039 0.003-0.077 0.005-0.116 0.007-0.376 0.020-0.376 0.020-0.741 0.105-0.034 0.048-0.034 0.048-0.050 0.1-0.017 0.015-0.033 0.031-0.050 0.047-0.091 0.097-0.112 0.223-0.125 0.353 0.053 0.129 0.136 0.176 0.25 0.25 0.066 0.070 0.117 0.134 0.159 0.22 0.073 0.143 0.171 0.274 0.299 0.373 0.072 0.060 0.085 0.096 0.117 0.181 0.033 0.017 0.067 0.034 0.1 0.050 0.055 0.038 0.108 0.077 0.161 0.117 0.015 0.011 0.029 0.022 0.044 0.034 0.075 0.059 0.137 0.112 0.188 0.194 0.101 0.143 0.252 0.195 0.412 0.255 0.136 0.052 0.215 0.119 0.282 0.25 0.087 0.106 0.171 0.115 0.302 0.14 0.023 0.005 0.046 0.010 0.070 0.015 0.071 0.015 0.143 0.030 0.214 0.044 0.628 0.128 0.628 0.128 0.857 0.305 0.153 0.108 0.337 0.108 0.518 0.12 0.025 0.002 0.050 0.004 0.075 0.006 0.274 0.021 0.548 0.023 0.823 0.023 0.052 0 0.103 0 0.155 0 0.111 0 0.221 0 0.331 0.001 0.175 0 0.35 0.001 0.524 0.001 0.497 0.002 0.993 0.003 1.49 0.004 0.275 0 0.549 0.001 0.825 0.002 0.145 0 0.29 0.001 0.436 0.001 0.137 0 0.273 0 0.409 0.001 0.050 0 0.1 0 0.15 0 0.616-0.001 0.616-0.001 0.813 0.187 0.204 0.22 0.408 0.448 0.401 0.765-0.025 0.22-0.124 0.37-0.276 0.526-0.048 0.049-0.086 0.099-0.126 0.154-0.113 0.126-0.274 0.168-0.438 0.184-0.172 0.009-0.345 0.008-0.518 0.006-0.058 0-0.116 0-0.175 0-0.158 0-0.316 0-0.473-0-0.149-0-0.298-0-0.447-0-0.296 0-0.591-0-0.887-0.001-0.285-0.001-0.571-0.001-0.856-0.001-0.026 0-0.026 0-0.053 0-0.017 0-0.035 0-0.053 0-0.31 0-0.62-0-0.93-0.001-0.131 0-0.262-0-0.393-0-2.164-0.001-2.164-0.001-2.506-0.283-0.014-0.021-0.029-0.041-0.043-0.063-0.069-0.076-0.11-0.085-0.21-0.103-0.030-0.006-0.060-0.012-0.091-0.017s-0.063-0.011-0.095-0.017c-0.447-0.081-0.447-0.081-0.61-0.2-0.037-0.057-0.037-0.057-0.066-0.113-0.086-0.148-0.227-0.167-0.381-0.208-0.201-0.054-0.381-0.132-0.504-0.304-0.011-0.021-0.021-0.043-0.032-0.064-0.069-0.097-0.172-0.134-0.277-0.183-0.147-0.073-0.232-0.156-0.303-0.308-0.045-0.084-0.078-0.102-0.162-0.145-0.15-0.083-0.253-0.157-0.319-0.324-0.060-0.145-0.137-0.192-0.272-0.266-0.163-0.099-0.223-0.324-0.293-0.493-0.037-0.072-0.037-0.072-0.111-0.113-0.2-0.137-0.284-0.371-0.33-0.6-0.003-0.018-0.006-0.037-0.009-0.055-0.020-0.062-0.039-0.085-0.091-0.125-0.061-0.003-0.061-0.003-0.127 0.009-0.024 0.004-0.049 0.007-0.075 0.011s-0.051 0.009-0.077 0.013c-0.026 0.004-0.052 0.008-0.079 0.012-0.064 0.010-0.128 0.020-0.192 0.030-0.007 0.020-0.015 0.040-0.022 0.060-0.030 0.072-0.055 0.098-0.117 0.143-0.016 0.012-0.031 0.024-0.047 0.036-0.165 0.092-0.341 0.123-0.527 0.146-0.237 0.035-0.412 0.066-0.563 0.264-0.196 0.17-0.471 0.204-0.717 0.255-0.024 0.005-0.049 0.011-0.074 0.016-0.048 0.010-0.097 0.020-0.146 0.029-0.141 0.029-0.219 0.059-0.313 0.175-0.215 0.21-0.495 0.243-0.782 0.288-0.171 0.026-0.171 0.026-0.318 0.112-0.020 0.028-0.039 0.057-0.058 0.085-0.069 0.102-0.148 0.145-0.259 0.196-0.018 0.008-0.035 0.017-0.054 0.026-0.152 0.071-0.309 0.143-0.479 0.143-0.003 0.014-0.007 0.028-0.011 0.043-0.049 0.169-0.115 0.3-0.272 0.39-0.146 0.067-0.146 0.067-0.217 0.067-0.003 0.019-0.006 0.038-0.008 0.057-0.033 0.177-0.086 0.323-0.173 0.48-0.009 0.017-0.018 0.034-0.027 0.051-0.051 0.088-0.095 0.144-0.182 0.198-0.101 0.068-0.136 0.146-0.16 0.263-0.018 0.128-0.030 0.256-0.041 0.384-0.003 0.034-0.006 0.068-0.009 0.102-0.008 0.087-0.014 0.173-0.021 0.259-0.003 0.048-0.007 0.096-0.011 0.144-0.026 0.386-0.021 0.772-0.021 1.159 0 0.103 0 0.206 0 0.309 0 0.195 0 0.39 0.001 0.584 0 0.222 0.001 0.444 0.001 0.666 0.001 0.456 0.001 0.912 0.001 1.368 0.107 0.061 0.185 0.084 0.308 0.085 0.031 0 0.062 0.001 0.093 0.001 0.049 0 0.049 0 0.099-0 0.034 0 0.069 0 0.103 0 0.071 0 0.143 0 0.215-0 0.092-0 0.183 0 0.275 0.001 0.071 0 0.141 0 0.212 0 0.050 0 0.1 0 0.151 0.001 0.046-0 0.046-0 0.092-0.001 0.041 0 0.041 0 0.082 0 0.087-0.015 0.116-0.044 0.17-0.113 0.018-0.049 0.018-0.049 0.023-0.101 0.003-0.019 0.005-0.038 0.008-0.058s0.005-0.040 0.007-0.060c0.022-0.18 0.053-0.349 0.189-0.48 0.017-0.012 0.034-0.023 0.051-0.035 0.119-0.098 0.141-0.194 0.173-0.34 0.136-0.494 0.136-0.494 0.333-0.628 0.127-0.089 0.181-0.199 0.244-0.337 0.071-0.149 0.164-0.244 0.323-0.304 0.108-0.050 0.154-0.122 0.212-0.224 0.109-0.166 0.244-0.226 0.419-0.302 0.176-0.079 0.32-0.15 0.441-0.306 0.19-0.181 0.479-0.191 0.728-0.227 0.224-0.032 0.391-0.079 0.57-0.229 0.166-0.134 0.429-0.123 0.634-0.123 0.019 0 0.038-0 0.057-0 0.040-0 0.079-0 0.119-0 0.059 0 0.119-0 0.179-0.001 0.684-0.003 0.684-0.003 0.958 0.243 0.077 0.049 0.145 0.059 0.235 0.074 0.017 0.003 0.034 0.006 0.052 0.009 0.073 0.013 0.145 0.025 0.218 0.037 0.525 0.088 0.525 0.088 0.699 0.291 0.129 0.136 0.256 0.189 0.429 0.252 0.201 0.085 0.308 0.162 0.421 0.352 0.060 0.080 0.114 0.118 0.2 0.166 0.018 0.011 0.036 0.021 0.055 0.032 0.025 0.014 0.050 0.029 0.076 0.044 0.086 0.065 0.118 0.121 0.165 0.217 0.095 0.194 0.095 0.194 0.256 0.331 0.223 0.165 0.286 0.456 0.347 0.713 0.006 0.025 0.012 0.049 0.018 0.075 0.005 0.022 0.010 0.044 0.015 0.067 0.018 0.057 0.018 0.057 0.071 0.083 0.017 0.007 0.034 0.014 0.052 0.020 0.193 0.15 0.235 0.4 0.265 0.631 0.040 0.376 0.040 0.755 0.040 1.132 0 0.040 0 0.040 0 0.080-0 0.305-0.002 0.61-0.025 0.914-0.002 0.036-0.002 0.036-0.005 0.072-0.024 0.257-0.063 0.506-0.249 0.697-0.022 0.015-0.044 0.031-0.067 0.047-0.091 0.083-0.104 0.186-0.133 0.303-0.069 0.255-0.135 0.501-0.361 0.658-0.127 0.090-0.181 0.201-0.246 0.34-0.069 0.125-0.155 0.203-0.282 0.265-0.113 0.060-0.172 0.125-0.24 0.233-0.098 0.145-0.199 0.207-0.359 0.274-0.041 0.018-0.083 0.037-0.124 0.055-0.020 0.009-0.039 0.017-0.059 0.026-0.149 0.065-0.229 0.118-0.324 0.248-0.176 0.163-0.421 0.183-0.649 0.218-0.065 0.011-0.129 0.021-0.194 0.032-0.028 0.005-0.056 0.009-0.086 0.014-0.068 0.011-0.135 0.024-0.202 0.038 0 0.082 0 0.165 0 0.25-0.701 0-1.402 0-2.125 0 0-0.082 0-0.165 0-0.25-0.021-0.003-0.041-0.007-0.063-0.010-0.078-0.013-0.155-0.026-0.234-0.039-0.050-0.009-0.099-0.017-0.149-0.025-0.562-0.095-0.562-0.095-0.755-0.309-0.106-0.108-0.228-0.161-0.365-0.22-0.2-0.087-0.341-0.161-0.45-0.358-0.077-0.122-0.17-0.168-0.297-0.231-0.142-0.075-0.189-0.21-0.257-0.349-0.053-0.102-0.103-0.168-0.202-0.226-0.218-0.161-0.289-0.448-0.343-0.702-0.030-0.131-0.065-0.194-0.171-0.279-0.184-0.15-0.211-0.335-0.239-0.563-0.002-0.029-0.005-0.058-0.008-0.087-0.021-0.091-0.045-0.118-0.117-0.177-0.059-0.015-0.059-0.015-0.125-0.012-0.025-0-0.050-0-0.076-0.001-0.027 0-0.055 0-0.083 0.001s-0.058-0-0.088-0c-0.063-0-0.127-0-0.19 0-0.1 0-0.2 0-0.301-0-0.195-0.001-0.39-0.001-0.585-0.001-0.248 0-0.495 0-0.743-0.001-0.115-0-0.231-0-0.347 0-0.061-0-0.121-0-0.182-0-0.027 0-0.054 0-0.083 0-0.196-0.001-0.373-0.027-0.544-0.127-0.089-0.097-0.137-0.209-0.178-0.333-0.082-0.008-0.165-0.017-0.25-0.025 0-2.087 0-4.175 0-6.325 0.083 0 0.165 0 0.25 0 0.004-0.026 0.008-0.052 0.012-0.079 0.015-0.098 0.031-0.195 0.046-0.292 0.007-0.042 0.013-0.084 0.020-0.126 0.090-0.578 0.090-0.578 0.272-0.803 0.025-0.015 0.050-0.030 0.075-0.045 0.121-0.088 0.153-0.211 0.197-0.35 0.052-0.161 0.105-0.266 0.253-0.355 0.022-0.007 0.043-0.014 0.065-0.021 0.065-0.024 0.065-0.024 0.090-0.089 0.007-0.024 0.014-0.047 0.020-0.072 0.056-0.169 0.123-0.258 0.269-0.361 0.089-0.064 0.149-0.134 0.216-0.222 0.111-0.142 0.239-0.238 0.42-0.27 0.049-0.011 0.049-0.011 0.072-0.057 0.014-0.035 0.027-0.069 0.041-0.103 0.098-0.163 0.247-0.209 0.419-0.263 0.162-0.055 0.275-0.098 0.373-0.243 0.134-0.16 0.373-0.201 0.568-0.238 0.326-0.058 0.326-0.058 0.586-0.248 0.135-0.165 0.361-0.205 0.561-0.241 0.021-0.004 0.042-0.008 0.063-0.012 0.086-0.016 0.171-0.032 0.258-0.047 0.022-0.004 0.045-0.008 0.067-0.012 0.020-0.003 0.040-0.007 0.061-0.011 0.083-0.023 0.123-0.075 0.177-0.14 0.185-0.196 0.422-0.243 0.678-0.289 0.351-0.064 0.351-0.064 0.629-0.279 0.191-0.158 0.428-0.191 0.665-0.236 0.065-0.013 0.13-0.026 0.195-0.039 0.029-0.005 0.057-0.011 0.087-0.017 0.122-0.024 0.122-0.024 0.2-0.121 0.138-0.2 0.371-0.249 0.597-0.294 0.072-0.013 0.144-0.025 0.216-0.037 0.335-0.057 0.335-0.057 0.61-0.245 0.296-0.257 0.819-0.233 1.189-0.263 0.412-0.030 0.412-0.030 0.781-0.198 0.31-0.181 0.739-0.188 1.089-0.204 0.046-0.002 0.092-0.005 0.138-0.007 0.451-0.025 0.897-0.018 1.348-0.001zM7.47 24.648c-0.034 0.006-0.034 0.006-0.069 0.013-0.133 0.026-0.133 0.026-0.251 0.089-0.011 0.023-0.021 0.046-0.033 0.070-0.072 0.136-0.166 0.197-0.305 0.252-0.149 0.062-0.226 0.166-0.306 0.303-0.070 0.093-0.15 0.143-0.248 0.205-0.122 0.095-0.147 0.212-0.177 0.358-0.052 0.227-0.138 0.445-0.302 0.616-0.142 0.187-0.112 0.473-0.111 0.697-0 0.030-0 0.059-0.001 0.090 0.001 0.272 0.005 0.489 0.185 0.701 0.146 0.183 0.215 0.395 0.26 0.621 0.024 0.111 0.057 0.181 0.136 0.263 0.046 0.031 0.046 0.031 0.096 0.055 0.113 0.066 0.169 0.155 0.24 0.263 0.074 0.109 0.158 0.156 0.277 0.206 0.135 0.058 0.21 0.132 0.287 0.256 0.082 0.116 0.196 0.128 0.329 0.15 0.019 0.003 0.038 0.006 0.057 0.009 0.018 0.003 0.036 0.006 0.054 0.009 0.579 0.096 1.204 0.086 1.784 0.002 0.020-0.003 0.039-0.006 0.059-0.009 0.205-0.020 0.205-0.020 0.387-0.101 0.035-0.046 0.035-0.046 0.075-0.126 0.073-0.131 0.184-0.181 0.319-0.236 0.143-0.062 0.211-0.153 0.28-0.292 0.052-0.098 0.126-0.13 0.226-0.172 0.137-0.095 0.169-0.25 0.201-0.404 0.050-0.221 0.129-0.438 0.296-0.598 0.157-0.164 0.114-0.487 0.115-0.701 0-0.026 0-0.052 0.001-0.079 0.007-0.354 0.007-0.354-0.15-0.654-0.184-0.208-0.264-0.462-0.31-0.732-0.034-0.117-0.093-0.18-0.197-0.24-0.073-0.032-0.073-0.032-0.149-0.056-0.018-0.041-0.034-0.083-0.050-0.125-0.097-0.164-0.201-0.244-0.375-0.317-0.111-0.053-0.164-0.087-0.213-0.2-0.034-0.076-0.049-0.102-0.126-0.137-0.079-0.020-0.156-0.034-0.237-0.046-0.024-0.005-0.049-0.009-0.074-0.015-0.318-0.060-0.641-0.065-0.964-0.064-0.049 0-0.049 0-0.098-0-0.31 0-0.614 0.016-0.919 0.077zM23.433 24.763c-0.023 0.029-0.047 0.058-0.069 0.088-0.128 0.155-0.296 0.246-0.487 0.303-0.1 0.035-0.142 0.051-0.196 0.143-0.020 0.057-0.039 0.114-0.056 0.172-0.037 0.114-0.099 0.191-0.176 0.281-0.011 0.014-0.022 0.028-0.034 0.043-0.044 0.055-0.084 0.102-0.142 0.141-0.15 0.124-0.162 0.383-0.181 0.566-0.107 1.056-0.107 1.056 0.156 2.050 0.040 0.043 0.081 0.076 0.128 0.111 0.151 0.125 0.245 0.285 0.288 0.474 0.019 0.077 0.019 0.077 0.059 0.141 0.083 0.043 0.165 0.065 0.255 0.090 0.188 0.059 0.34 0.226 0.473 0.365 0.345 0.325 1.157 0.206 1.604 0.198 0.135-0.004 0.269-0.012 0.404-0.023 0.021-0.002 0.042-0.003 0.064-0.006 0.241-0.024 0.436-0.076 0.605-0.256 0.148-0.141 0.297-0.259 0.495-0.317 0.096-0.030 0.096-0.030 0.163-0.101 0.025-0.058 0.045-0.116 0.064-0.176 0.079-0.191 0.2-0.374 0.366-0.5 0.172-0.145 0.178-0.433 0.197-0.644 0.094-1.010 0.094-1.010-0.162-1.956-0.040-0.043-0.080-0.076-0.128-0.111-0.151-0.125-0.245-0.285-0.288-0.474-0.019-0.077-0.019-0.077-0.059-0.14-0.083-0.043-0.165-0.065-0.254-0.090-0.188-0.059-0.34-0.226-0.473-0.365-0.375-0.352-2.232-0.359-2.614-0.006z"></path><path d="M20.5 0c3.63 0 7.26 0 11 0 0 0.091 0 0.181 0 0.275 0.033 0.017 0.066 0.033 0.1 0.050 0.069 0.063 0.069 0.063 0.125 0.125 0 0.017 0 0.033 0 0.050 0.091 0 0.181 0 0.275 0 0 5.263 0 10.527 0 15.95-0.082 0.008-0.165 0.017-0.25 0.025-0.063 0.038-0.063 0.038-0.103 0.094-0.078 0.088-0.151 0.146-0.253 0.203-0.046 0.026-0.046 0.026-0.077 0.066-0.084 0.073-0.205 0.050-0.311 0.050-0.037 0.002-0.037 0.002-0.074 0.003-0.125 0.001-0.208-0.004-0.305-0.088-0.026-0.026-0.052-0.052-0.077-0.079-0.038-0.026-0.076-0.051-0.116-0.075-0.1-0.065-0.162-0.131-0.235-0.225-0.022-0.020-0.043-0.040-0.066-0.061-0.179-0.193-0.192-0.481-0.191-0.732-0-0.023-0-0.046-0-0.070-0-0.078 0-0.155 0-0.233 0-0.056 0-0.113 0-0.169-0-0.155 0-0.309 0-0.463 0-0.149 0-0.299 0-0.449-0-0.287 0-0.574 0-0.861 0-0.456 0-0.911-0-1.367 0-0.175-0-0.351-0-0.526 0-0.020 0-0.039 0-0.059-0-0.463-0-0.927-0-1.39 0-0.021 0-0.041 0-0.062 0-0.473 0-0.947 0-1.42 0-0.020 0-0.041 0-0.062 0-0.164 0-0.329 0-0.493 0-0.677 0-1.354-0-2.030 0-0.096 0-0.191-0-0.287 0-0.028 0-0.028 0-0.057-0-0.303 0-0.606 0-0.908 0-0.304 0-0.608 0-0.912-0-0.165-0-0.329 0-0.494 0-0.151 0-0.301-0-0.452 0-0.054 0-0.109 0-0.164 0-0.074 0-0.148-0-0.222 0-0.021 0.001-0.043 0.001-0.065-0.002-0.108-0.013-0.173-0.087-0.254-0.071-0.061-0.123-0.080-0.218-0.081-0.040-0.001-0.040-0.001-0.080-0.001-0.043 0.001-0.043 0.001-0.087 0.001-0.031-0-0.061-0.001-0.093-0.001-0.085-0.001-0.171-0-0.256 0-0.092 0-0.184-0-0.277-0.001-0.18-0.001-0.361-0.001-0.542 0-0.147 0-0.294 0-0.44 0-0.021 0-0.042 0-0.064-0-0.042 0-0.085 0-0.127 0-0.398-0.001-0.796 0-1.194 0.001-0.341 0.001-0.683 0.001-1.024 0-0.396-0.001-0.793-0.001-1.189-0.001-0.042 0-0.084 0-0.127 0-0.031 0-0.031 0-0.063 0-0.146 0-0.293 0-0.44-0.001-0.179-0-0.357-0-0.536 0.001-0.091 0.001-0.182 0.001-0.273 0-0.099-0.001-0.198 0-0.296 0.001-0.029-0.001-0.058-0.001-0.087-0.001-0.166 0.002-0.166 0.002-0.309 0.077-0.092 0.115-0.078 0.254-0.076 0.394 0 0.031-0 0.061-0 0.093-0 0.085 0 0.169 0.001 0.254 0.001 0.091 0 0.183 0 0.274-0 0.159 0 0.317 0.001 0.475 0.001 0.229 0.001 0.459 0.001 0.688-0 0.372 0 0.745 0 1.117 0 0.022 0 0.045 0 0.067 0 0.113 0 0.226 0.001 0.338 0 0.226 0.001 0.452 0.001 0.677 0 0.022 0 0.045 0 0.067 0 0.371 0.001 0.742 0 1.112-0 0.229 0 0.457 0.001 0.686 0 0.156 0.001 0.313 0 0.47 0 0.091 0 0.181 0.001 0.271 0.001 0.098 0 0.196 0 0.294 0 0.043 0 0.043 0.001 0.086-0.002 0.183-0.035 0.325-0.141 0.478-0.044 0.040-0.044 0.040-0.084 0.070-0.090 0.068-0.127 0.143-0.177 0.244-0.089 0.177-0.18 0.249-0.364 0.311-0.096 0.008-0.192 0.008-0.289 0.009-0.026 0.001-0.052 0.002-0.079 0.003-0.212 0.002-0.383-0.044-0.539-0.192-0.038-0.063-0.069-0.127-0.1-0.194-0.051-0.106-0.101-0.168-0.198-0.233-0.12-0.12-0.155-0.262-0.156-0.427 0-0.023 0-0.045 0.001-0.069 0-0.024 0-0.049 0-0.074 0-0.053 0-0.105 0.001-0.158 0-0.084 0-0.167 0-0.25-0-0.237 0-0.474 0.002-0.711 0.001-0.146 0-0.291 0-0.436-0-0.055 0-0.111 0.001-0.166 0.001-0.077 0-0.154 0-0.231 0-0.023 0.001-0.045 0.002-0.069-0-0.021-0.001-0.043-0.001-0.064 0-0.018 0-0.037 0-0.055-0.030-0.094-0.087-0.154-0.169-0.207-0.097-0.022-0.193-0.020-0.292-0.019-0.030 0-0.060-0-0.090-0-0.083-0-0.166-0-0.248 0-0.090 0-0.18-0-0.27-0-0.158-0-0.316-0-0.473-0-0.235 0.001-0.469 0-0.704 0-0.419-0.001-0.838-0.001-1.257-0-0.367 0-0.733 0-1.1 0-0.024 0-0.049 0-0.073 0-0.099-0-0.197-0-0.296-0-0.925-0-1.851 0-2.777 0.001-0.823 0.001-1.646 0.001-2.468 0-0.924-0.001-1.848-0.001-2.772-0.001-0.098 0-0.197 0-0.295 0-0.024 0-0.048 0-0.074 0-0.367 0-0.733 0-1.099-0-0.417-0-0.833-0-1.25 0-0.233 0-0.466 0-0.7 0-0.155-0-0.311-0-0.467 0-0.089 0-0.177 0-0.266 0-0.095-0.001-0.191 0-0.287 0-0.027-0-0.055-0-0.084-0.001-0.123 0.002-0.208 0.004-0.3 0.090-0.065 0.087-0.065 0.087-0.077 0.188-0.001 0.030-0.001 0.030-0.001 0.061 0 0.021 0.001 0.043 0.001 0.066s-0 0.046-0.001 0.071c-0.001 0.078 0 0.156 0.001 0.234-0 0.056-0 0.112-0.001 0.168-0.001 0.121-0.001 0.241 0 0.361 0.001 0.191 0.001 0.381 0 0.572-0.001 0.267-0.001 0.534-0 0.802 0 0.274 0.001 0.549 0.001 0.823 0 0.025 0 0.025 0 0.051-0 0.282-0.001 0.564-0.001 0.846-0 0.189 0 0.379 0 0.568 0 0.118 0 0.236 0 0.354 0 0.055 0 0.109 0.001 0.164 0.002 0.745 0.002 0.745-0.123 0.903-0.052 0.052-0.109 0.098-0.165 0.144-0.107 0.087-0.178 0.197-0.255 0.31-0.090 0.105-0.184 0.182-0.323 0.209-0.065 0.005-0.127 0.005-0.192 0.003-0.032 0.001-0.032 0.001-0.065 0.001-0.149-0.002-0.238-0.027-0.358-0.115-0.063-0.066-0.063-0.066-0.117-0.136-0.018-0.023-0.036-0.046-0.055-0.070-0.053-0.069-0.053-0.069-0.094-0.139-0.076-0.082-0.076-0.082-0.309-0.080 0-2.648 0-5.296 0-8.025 0.091 0 0.181 0 0.275 0 0.025-0.050 0.025-0.050 0.050-0.1 0.037-0.035 0.037-0.035 0.080-0.069 0.087-0.071 0.158-0.151 0.228-0.238 0.166-0.171 0.506-0.143 0.728-0.148 0.18-0.002 0.359-0.002 0.539-0.002 0.095 0 0.191 0 0.286 0 0.167-0 0.333 0 0.5 0 0.248 0 0.495 0 0.743 0 0.392 0 0.783 0 1.175 0 0.621 0 1.242 0 1.863 0 0.212 0 0.425 0 0.637 0 0.054 0 0.107 0 0.161 0 0.631-0 1.263-0 1.895-0 0.027 0 0.055 0 0.084 0 0.897 0 1.794 0 2.691 0.001 0.922 0 1.845 0 2.768 0 0.13-0 0.26-0 0.39-0 0.026 0 0.051 0 0.078 0 0.413-0 0.825 0 1.238 0.001 0.415 0 0.829 0 1.243 0 0.247-0 0.493-0 0.739 0 0.165 0 0.329 0 0.493-0 0.094-0 0.187-0 0.281 0 0.101 0.001 0.202 0 0.303-0 0.029 0 0.058 0.001 0.089 0.001 0.144 0 0.144 0 0.27-0.061 0.084-0.094 0.117-0.166 0.117-0.295 0-0.030 0-0.061 0.001-0.092-0.001-0.050-0.001-0.050-0.001-0.1 0-0.035 0-0.071 0-0.106 0-0.076 0-0.152 0-0.228-0.001-0.12-0-0.241 0-0.362 0.001-0.191 0-0.382 0-0.573-0-0.341 0-0.683 0.001-1.024 0-0.119 0-0.239-0-0.359-0-0.075-0-0.15 0-0.224 0-0.050-0-0.101-0.001-0.151 0.001-0.61 0.001-0.61 0.181-0.798 0.041-0.025 0.083-0.050 0.125-0.075 0.047-0.051 0.090-0.103 0.134-0.157 0.041-0.043 0.041-0.043 0.116-0.069 0-0.091 0-0.181 0-0.275z"></path><path d="M13.554 8.84c0.041 0 0.082-0 0.124-0.001 0.111-0 0.222 0 0.333 0 0.117 0 0.233 0 0.35-0 0.196 0 0.392 0 0.588 0.001 0.226 0 0.451 0 0.677-0 0.195-0 0.39-0 0.584-0 0.116 0 0.232 0 0.348 0 0.109-0 0.218 0 0.327 0 0.040 0 0.079 0 0.119 0 0.724-0.003 0.724-0.003 0.988 0.249 0.165 0.213 0.178 0.556 0.152 0.816-0.032 0.236-0.073 0.457-0.266 0.613-0.197 0.12-0.459 0.136-0.684 0.136-0.017 0-0.034 0-0.052 0-0.057 0-0.114 0-0.172 0-0.041 0-0.082 0-0.124 0-0.112 0.001-0.224 0.001-0.335 0.001-0.070 0-0.14 0-0.21 0-0.22 0-0.439 0.001-0.659 0.001-0.252 0-0.505 0.001-0.758 0.001-0.196 0.001-0.392 0.001-0.587 0.001-0.117 0-0.233 0-0.35 0.001-0.11 0-0.22 0-0.33 0-0.040 0-0.080 0-0.12 0-0.726 0.004-0.726 0.004-0.992-0.248-0.177-0.229-0.178-0.597-0.147-0.874 0.055-0.387 0.055-0.387 0.189-0.512 0.301-0.191 0.659-0.186 1.004-0.185z"></path><path d="M5.054 8.84c0.041 0 0.082-0 0.124-0.001 0.111-0 0.222 0 0.333 0 0.117 0 0.234 0 0.35-0 0.196 0 0.392 0 0.588 0.001 0.226 0 0.451 0 0.677-0 0.195-0 0.389-0 0.584-0 0.116 0 0.232 0 0.348 0 0.109-0 0.218 0 0.327 0 0.040 0 0.079 0 0.119 0 0.724-0.003 0.724-0.003 0.988 0.249 0.165 0.213 0.178 0.556 0.152 0.816-0.032 0.236-0.073 0.457-0.266 0.613-0.197 0.12-0.459 0.136-0.684 0.136-0.017 0-0.034 0-0.052 0-0.057 0-0.114 0-0.172 0-0.041 0-0.082 0-0.124 0-0.112 0.001-0.224 0.001-0.335 0.001-0.070 0-0.14 0-0.21 0-0.22 0-0.439 0.001-0.659 0.001-0.253 0-0.505 0.001-0.758 0.001-0.196 0.001-0.391 0.001-0.587 0.001-0.117 0-0.233 0-0.35 0.001-0.11 0-0.22 0-0.33 0-0.040 0-0.080 0-0.12 0-0.726 0.004-0.726 0.004-0.992-0.248-0.177-0.229-0.178-0.597-0.147-0.874 0.054-0.387 0.054-0.387 0.189-0.512 0.301-0.191 0.659-0.186 1.004-0.185z"></path><path d="M25.997 5.112c0.037-0.001 0.037-0.001 0.075-0.002 0.184-0 0.184-0 0.277 0.075 0.017 0.021 0.034 0.043 0.050 0.065 0.044 0.030 0.044 0.030 0.087 0.050 0.087 0.043 0.145 0.106 0.212 0.175 0.021 0.018 0.042 0.035 0.064 0.053 0.208 0.181 0.268 0.392 0.292 0.659 0.009 0.16 0.008 0.32 0.006 0.481-0 0.051-0 0.103-0 0.154 0 0.107-0 0.214-0.001 0.321-0.001 0.136-0.001 0.272-0.001 0.409 0 0.106-0 0.212-0.001 0.317-0 0.050-0 0.101-0 0.151-0.001 0.724-0.001 0.724-0.125 0.881-0.052 0.052-0.108 0.098-0.166 0.144-0.107 0.087-0.178 0.197-0.255 0.31-0.090 0.105-0.184 0.182-0.323 0.209-0.064 0.005-0.127 0.005-0.192 0.003-0.021 0-0.043 0.001-0.065 0.001-0.149-0.002-0.238-0.027-0.358-0.115-0.062-0.065-0.062-0.065-0.116-0.134-0.019-0.024-0.038-0.049-0.058-0.073-0.017-0.022-0.034-0.044-0.052-0.067-0.066-0.084-0.133-0.158-0.215-0.225-0.139-0.117-0.163-0.234-0.18-0.408-0.007-0.102-0.009-0.203-0.009-0.305-0-0.022-0-0.045-0-0.068-0-0.073-0.001-0.146-0.001-0.219-0-0.025-0-0.050-0-0.076-0-0.133-0.001-0.267-0.001-0.4-0-0.136-0.001-0.273-0.002-0.41-0-0.106-0.001-0.212-0.001-0.318-0-0.050-0-0.101-0.001-0.151-0.006-0.758-0.006-0.758 0.211-0.995 0.050-0.042 0.1-0.084 0.15-0.125 0.019-0.020 0.038-0.040 0.058-0.061 0.075-0.071 0.153-0.123 0.24-0.178 0.052-0.032 0.052-0.032 0.085-0.075 0.084-0.072 0.208-0.049 0.314-0.048z"></path><path d="M25.995 11.366c0.026-0.001 0.052-0.001 0.079-0.002 0.206-0.001 0.368 0.032 0.52 0.177 0.049 0.066 0.082 0.137 0.117 0.211 0.041 0.086 0.064 0.123 0.139 0.186 0.116 0.097 0.184 0.226 0.212 0.375 0.004 0.066 0.005 0.13 0.004 0.196 0 0.024 0 0.049 0 0.075 0 0.080 0 0.161-0 0.241 0 0.056 0 0.113 0 0.169 0 0.118-0 0.235-0.001 0.353-0.001 0.15-0 0.301 0 0.451 0 0.116 0 0.232-0 0.348 0 0.055 0 0.111 0 0.166 0 0.078-0 0.155-0.001 0.233 0 0.023 0 0.045 0 0.069-0.003 0.219-0.084 0.388-0.214 0.562-0.017 0.015-0.033 0.031-0.050 0.047-0.049 0.052-0.068 0.088-0.097 0.152-0.061 0.129-0.138 0.201-0.273 0.255-0.14 0.039-0.281 0.031-0.425 0.031-0.046 0.001-0.046 0.001-0.093 0.002-0.197 0.001-0.37-0.013-0.526-0.145-0.061-0.066-0.087-0.123-0.112-0.21-0.008-0.027-0.015-0.053-0.023-0.081-0.033-0.017-0.067-0.034-0.1-0.050-0.041-0.049-0.041-0.049-0.078-0.107-0.018-0.028-0.018-0.028-0.038-0.056-0.084-0.153-0.091-0.291-0.092-0.462-0-0.025-0-0.050-0-0.075-0.001-0.082-0.001-0.164-0.001-0.245-0-0.057-0-0.114-0.001-0.171-0-0.12-0.001-0.239-0.001-0.358 0-0.153-0.001-0.305-0.002-0.458-0.001-0.118-0.001-0.235-0.001-0.353-0-0.056-0-0.113-0.001-0.169-0.001-0.079-0-0.158-0-0.236-0-0.023-0.001-0.046-0.001-0.070 0.002-0.163 0.043-0.283 0.141-0.415 0.044-0.040 0.044-0.040 0.086-0.070 0.085-0.066 0.121-0.134 0.166-0.231 0.071-0.151 0.129-0.231 0.285-0.301 0.128-0.033 0.252-0.032 0.384-0.032z"></path></symbol>
<symbol id="icon-facebook" viewBox="0 0 32 32"><path d="M21.33 5.314h2.92V.226A36.551 36.551 0 0 0 20.125 0h-.138.007C15.782 0 12.9 2.65 12.9 7.52V12H8.25v5.688h4.648V32h5.698V17.69h4.46l.708-5.69h-5.17V8.08c.002-1.644.444-2.768 2.736-2.768z"/></symbol>
<symbol id="icon-instagram" viewBox="0 0 32 32"><path  d="M31.968 9.408c-.074-1.7-.35-2.87-.744-3.882a7.844 7.844 0 0 0-1.849-2.839l-.001-.001A7.898 7.898 0 0 0 26.596.862l-.054-.018c-1.02-.394-2.18-.67-3.88-.744C20.946.02 20.4 0 16.06 0c-4.346 0-4.89.02-6.596.094-1.7.074-2.868.35-3.88.744a7.844 7.844 0 0 0-2.839 1.849l-.001.001A7.89 7.89 0 0 0 .918 5.466L.9 5.52C.506 6.54.232 7.7.156 9.4c-.08 1.714-.1 2.26-.1 6.602 0 4.346.02 4.89.094 6.596.074 1.7.35 2.87.744 3.882a7.886 7.886 0 0 0 1.85 2.838c.8.812 1.77 1.444 2.832 1.844 1.02.394 2.18.67 3.882.744 1.706.076 2.25.094 6.596.094 4.344 0 4.888-.02 6.594-.094 1.7-.074 2.87-.35 3.882-.744a8.233 8.233 0 0 0 4.663-4.627l.019-.055c.394-1.02.67-2.18.744-3.882.076-1.706.094-2.25.094-6.596 0-4.344-.006-4.888-.08-6.594zm-2.88 13.064c-.07 1.564-.332 2.408-.552 2.97a5.34 5.34 0 0 1-3.002 3.027l-.036.013c-.562.218-1.412.48-2.968.548-1.688.076-2.194.094-6.464.094s-4.782-.02-6.464-.094c-1.564-.068-2.408-.33-2.97-.55a4.947 4.947 0 0 1-1.837-1.193l-.001-.001a5.001 5.001 0 0 1-1.183-1.804l-.011-.034c-.22-.562-.48-1.412-.55-2.968-.074-1.688-.094-2.196-.094-6.464 0-4.27.02-4.782.094-6.464.07-1.564.332-2.408.55-2.97a4.888 4.888 0 0 1 1.2-1.838A4.96 4.96 0 0 1 6.64 3.55c.56-.22 1.412-.48 2.968-.55 1.688-.074 2.194-.094 6.464-.094 4.276 0 4.78.02 6.464.094 1.562.07 2.406.332 2.968.55a4.929 4.929 0 0 1 1.84 1.194 4.98 4.98 0 0 1 1.192 1.84c.22.56.482 1.41.55 2.968.076 1.688.094 2.194.094 6.464s-.018 4.77-.092 6.456z"/><path  d="M16.06 7.782a8.222 8.222 0 0 0-.01 16.44h.009a8.222 8.222 0 0 0 .01-16.44h-.009zm0 13.554a5.334 5.334 0 1 1 0-10.668 5.334 5.334 0 1 1 0 10.668zM26.524 7.458a1.92 1.92 0 0 1-3.84 0 1.92 1.92 0 0 1 3.84 0z" /></symbol>
<symbol id="icon-linkedin" viewBox="0 0 32 32"><path d="M31.992 32H32V20.26c0-5.74-1.236-10.164-7.948-10.164-3.226 0-5.392 1.772-6.276 3.45h-.094v-2.912H11.32V32h6.628V21.42c0-2.784.528-5.476 3.976-5.476 3.4 0 3.45 3.178 3.45 5.656V32h6.62zM.528 10.636h6.634V32H.528V10.636zM3.842 0C1.722 0 .002 1.72.002 3.84s1.72 3.88 3.84 3.88c2.122 0 3.844-1.76 3.844-3.88S5.96 0 3.84 0z"/></symbol>
<symbol id="icon-twitter" viewBox="0 0 32 32"><path d="M32 6.078c-1.1.494-2.376.858-3.712 1.029l-.068.007a6.56 6.56 0 0 0 2.873-3.58l.013-.046a12.858 12.858 0 0 1-4.076 1.574l-.084.014A6.56 6.56 0 0 0 15.598 9.56c0 .52.044 1.02.152 1.496A18.554 18.554 0 0 1 2.255 4.228l-.027-.034a6.496 6.496 0 0 0-.895 3.311 6.562 6.562 0 0 0 2.888 5.442l.023.015a6.465 6.465 0 0 1-2.997-.823l.033.017v.072a6.592 6.592 0 0 0 5.213 6.438l.043.008a6.408 6.408 0 0 1-1.669.216h-.054.003a5.842 5.842 0 0 1-1.279-.118l.037.006c.873 2.624 3.273 4.496 6.121 4.57h.009a13.098 13.098 0 0 1-8.12 2.798h-.015.001c-.538 0-1.054-.024-1.57-.09C2.826 27.902 6.287 29 10.004 29h.063-.003c12.072 0 18.672-10 18.672-18.668 0-.29-.01-.57-.024-.848a13.186 13.186 0 0 0 3.258-3.359l.03-.047z"/></symbol>
<symbol id="icon-heart" viewBox="0 0 32 32"><path fill="none" stroke="#fff" style="stroke: var(--color1, #fff)" stroke-linejoin="round" stroke-linecap="round" stroke-miterlimit="4" stroke-width="2.6667" d="M27.787 6.147c-0.681-0.681-1.49-1.222-2.38-1.591s-1.844-0.559-2.807-0.559c-0.963 0-1.917 0.19-2.807 0.559s-1.698 0.909-2.38 1.591l-1.413 1.413-1.413-1.413c-1.376-1.376-3.241-2.148-5.187-2.148s-3.811 0.773-5.187 2.148c-1.376 1.376-2.148 3.241-2.148 5.187s0.773 3.811 2.148 5.187l11.787 11.787 11.787-11.787c0.681-0.681 1.222-1.49 1.591-2.38s0.559-1.844 0.559-2.807c0-0.963-0.19-1.917-0.559-2.807s-0.909-1.699-1.591-2.38z"></path></symbol>
</defs>
</svg>
